<?xml version="1.0" encoding="UTF-8"?>
<svg width="20px" height="20px" viewBox="0 0 20 20" version="1.1" xmlns="http://www.w3.org/2000/svg" xmlns:xlink="http://www.w3.org/1999/xlink">
    <!-- Generator: Sketch 53.2 (72643) - https://sketchapp.com -->
    <title>icon</title>
    <desc>Created with Sketch.</desc>
    <g id="icon" stroke="none" stroke-width="1" fill="none" fill-rule="evenodd">
        <g id="bxs-file" transform="translate(2.000000, 0.000000)" fill-rule="nonzero">
            <path d="M14,20 C15.104,20 16,19.104 16,18 L16,6 L10,0 L2,0 C0.896,0 0,0.896 0,2 L0,18 C0,19.104 0.896,20 2,20 L14,20 Z" id="Path" fill="#1D3A6E"></path>
            <path d="M10,0 L16,6 L11,6 C10.447,6 10,6 10,6 L10,0 Z" id="Path" fill="#A5C3DE"></path>
            <polygon id="Path" fill="#A5C3DE" points="3 6 6 6 6 8 3 8"></polygon>
            <polygon id="Path" fill="#A5C3DE" points="3 10 13 10 13 12 3 12"></polygon>
            <polygon id="Path" fill="#A5C3DE" points="3 14 13 14 13 16 3 16"></polygon>
        </g>
    </g>
</svg>